<svg width="20" height="3" viewBox="0 0 20 3" fill="none" xmlns="http://www.w3.org/2000/svg">
<g id="notifications" clip-path="url(#clip0_1_147)">
<path id="Vector" d="M9.99998 1.33334C10.9166 1.33334 11.6666 0.583344 11.6666 -0.333323H8.33331C8.33331 0.583344 9.08331 1.33334 9.99998 1.33334ZM15 -3.66666V-7.83332C15 -10.3917 13.6416 -12.5333 11.25 -13.1V-13.6667C11.25 -14.3583 10.6916 -14.9167 9.99998 -14.9167C9.30831 -14.9167 8.74998 -14.3583 8.74998 -13.6667V-13.1C6.36665 -12.5333 4.99998 -10.4 4.99998 -7.83332V-3.66666L3.33331 -1.99999V-1.16666H16.6666V-1.99999L15 -3.66666ZM13.3333 -2.83332H6.66665V-7.83332C6.66665 -9.89999 7.92498 -11.5833 9.99998 -11.5833C12.075 -11.5833 13.3333 -9.89999 13.3333 -7.83332V-2.83332Z" fill="white"/>
</g>
<defs>
<clipPath id="clip0_1_147">
<rect width="20" height="20" fill="white" transform="translate(0 -17)"/>
</clipPath>
</defs>
</svg>
