<svg width="20" height="3" viewBox="0 0 20 3" fill="none" xmlns="http://www.w3.org/2000/svg">
<g id="search" clip-path="url(#clip0_1_131)">
<path id="Vector" d="M12.9167 -5.33333H12.2583L12.025 -5.55833C12.8417 -6.50833 13.3333 -7.74167 13.3333 -9.08333C13.3333 -12.075 10.9083 -14.5 7.91667 -14.5C4.925 -14.5 2.5 -12.075 2.5 -9.08333C2.5 -6.09167 4.925 -3.66667 7.91667 -3.66667C9.25833 -3.66667 10.4917 -4.15833 11.4417 -4.975L11.6667 -4.74167V-4.08333L15.8333 0.0749989L17.075 -1.16667L12.9167 -5.33333ZM7.91667 -5.33333C5.84167 -5.33333 4.16667 -7.00833 4.16667 -9.08333C4.16667 -11.1583 5.84167 -12.8333 7.91667 -12.8333C9.99167 -12.8333 11.6667 -11.1583 11.6667 -9.08333C11.6667 -7.00833 9.99167 -5.33333 7.91667 -5.33333Z" fill="white"/>
</g>
<defs>
<clipPath id="clip0_1_131">
<rect width="20" height="20" fill="white" transform="translate(0 -17)"/>
</clipPath>
</defs>
</svg>
