<svg width="25" height="112" viewBox="0 0 25 112" fill="none" xmlns="http://www.w3.org/2000/svg">
<g id="Vector">
<path fill-rule="evenodd" clip-rule="evenodd" d="M12.4992 0C17.17 0 20.9732 3.80313 20.9732 8.474L20.9749 48.4774V90.0403C23.512 92.3656 25 95.6603 25 99.1956C25 106.088 19.3919 111.698 12.5009 111.698C5.6098 111.698 1.5719e-05 106.087 1.5719e-05 99.1956C-0.00272843 97.474 0.353852 95.7709 1.04695 94.195C1.74005 92.6191 2.75441 91.2052 4.02516 90.0437V8.474C4.02516 3.80483 7.82829 0 12.4992 0ZM19.9363 105.636C21.644 103.93 22.6051 101.615 22.6087 99.2007C22.609 97.7127 22.2418 96.246 21.5396 94.9341C20.8373 93.6222 19.8219 92.5041 18.5836 91.6792V50.0783V8.47739C18.5836 5.67419 15.3024 2.39299 12.4992 2.39299C9.69596 2.39299 6.41985 5.67588 6.41985 8.47739L5.91985 50.0774L6.41985 91.6775C3.91154 93.3638 2.393 96.1568 2.393 99.199C2.39614 101.613 3.35655 103.928 5.0636 105.635C6.77066 107.342 10.085 109.302 12.4992 109.305C14.9136 109.303 18.2286 107.343 19.9363 105.636Z" fill="black"/>
<path d="M15.8888 92.6418V34.199H9.10956V92.6384C6.73176 93.8723 5.08611 96.3331 5.08611 99.1973C5.11533 101.145 5.90935 103.002 7.29668 104.369C8.68402 105.736 10.5533 106.502 12.5009 106.503C14.4484 106.503 16.3179 105.737 17.7055 104.37C19.0932 103.004 19.8876 101.146 19.9173 99.199C19.9173 96.3348 18.2733 93.8739 15.8905 92.6435L15.8888 92.6418Z" fill="url(#paint0_linear_1_171)"/>
</g>
<defs>
<linearGradient id="paint0_linear_1_171" x1="12.5" y1="0" x2="12.5" y2="111.698" gradientUnits="userSpaceOnUse">
<stop stop-color="#FF0000"/>
<stop offset="1" stop-color="#FF6B00"/>
</linearGradient>
</defs>
</svg>
